<svg style="width:100px;height:100px" version="1.1" xmlns="http://www.w3.org/2000/svg" xmlns:xl="http://www.w3.org/1999/xlink" xmlns:dc="http://purl.org/dc/elements/1.1/" viewBox="-24699 33098 788.30745 788.30745" width="788.30745" height="788.30745">
  <defs/>
  <metadata> Produced by OmniGraffle 7.18.5\n2021-12-19 10:04:48 +0000</metadata>
  <g id="Canvas_" stroke-dasharray="none" fill-opacity="1" stroke-opacity="1" stroke="none" fill="none">
    <title>屏保</title>
    <g id="Canvas__Layer_1">
      <title>Layer 1</title>
      <g id="Graphic_103">
        <path d="M -24561.198 33246.173 L -24560.364 33246.173 L -24561.198 33248.677 Z M -24544.507 33246.173 L -24541.168 33246.173 L -24541.168 33248.677 C -24544.864 33247.537 -24542.868 33249.284 -24544.507 33246.173 Z M -24494.432 33251.18 L -24491.93 33254.52 L -24495.267 33252.015 Z M -24550.35 33257.857 L -24550.35 33257.857 L -24552.018 33256.188 Z M -24547.845 33257.857 L -24547.01 33259.526 L -24547.845 33260.36 Z M -24601.258 33261.195 L -24601.258 33261.195 L -24597.92 33262.864 C -24600.945 33262.06 -24599.62 33262.92 -24601.258 33261.195 Z M -24443.523 33268.706 L -24437.68 33271.21 L -24439.35 33272.045 L -24442.69 33272.045 C -24443.71 33269.747 -24443.29 33270.68 -24443.523 33268.706 Z M -24457.71 33272.88 L -24457.71 33272.88 L -24455.207 33272.88 C -24455.777 33275.317 -24456.59 33275.117 -24457.71 33272.88 Z M -24473.568 33274.55 L -24472.733 33274.55 L -24471.9 33276.217 L -24474.403 33276.217 Z M -24557.025 33279.556 L -24554.522 33279.556 C -24556.183 33282.61 -24554.128 33280.97 -24557.86 33282.06 C -24556.147 33280.05 -24556.793 33282.185 -24557.025 33279.556 Z M -24419.32 33279.556 L -24418.486 33279.556 L -24419.32 33282.06 Z M -24529.484 33282.894 L -24529.484 33282.894 L -24527.815 33280.39 C -24528.253 33282.05 -24526.865 33281.413 -24529.484 33282.894 Z M -24425.163 33292.91 L -24424.328 33292.91 L -24425.997 33295.413 Z M -24396.787 33293.743 L -24387.607 33296.247 C -24387.33 33299.03 -24387.05 33301.81 -24386.773 33304.593 L -24383.434 33302.09 C -24384.97 33307.467 -24386.972 33307.097 -24383.434 33309.6 C -24384.976 33310.413 -24384.126 33312.025 -24385.103 33310.435 C -24387.813 33310.623 -24398.65 33302.506 -24397.622 33296.247 Z M -24618.784 33307.93 L -24617.95 33308.766 L -24619.618 33310.435 Z M -24590.408 33311.27 L -24590.408 33311.27 L -24590.408 33309.6 L -24589.574 33310.435 Z M -24590.408 33311.27 L -24590.408 33311.27 L -24591.243 33312.104 L -24592.077 33310.435 Z M -24395.118 33312.104 L -24393.45 33312.94 L -24395.118 33314.608 Z M -24381.765 33312.104 L -24380.93 33312.104 L -24380.096 33314.608 L -24382.6 33314.608 C -24381.203 33312.384 -24382.164 33314.24 -24381.765 33312.104 Z M -24642.152 33318.78 L -24639.648 33318.78 L -24638.813 33320.45 L -24640.482 33321.284 L -24641.317 33321.284 Z M -24374.254 33321.284 L -24373.42 33321.284 L -24374.254 33323.79 Z M -24474.403 33340.48 L -24474.403 33340.48 C -24474.78 33341.403 -24473.687 33341.11 -24475.237 33342.15 C -24474.96 33341.592 -24474.68 33341.036 -24474.403 33340.48 Z M -24461.05 33347.156 L -24460.215 33347.156 C -24460.493 33347.99 -24460.77 33348.825 -24461.05 33349.66 Z M -24459.38 33350.494 L -24461.05 33352.164 L -24461.05 33351.33 Z M -24425.163 33350.494 L -24421.825 33352.164 L -24425.163 33353.833 Z M -24469.395 33351.33 L -24467.726 33351.33 L -24470.23 33353.833 C -24468.833 33351.61 -24469.794 33353.466 -24469.395 33351.33 Z M -24447.696 33354.667 L -24447.696 33354.667 L -24449.365 33352.164 C -24447.68 33353.666 -24448.747 33352.144 -24447.696 33354.667 Z M -24574.55 33353 L -24574.55 33353 C -24571.204 33353.404 -24574.61 33354.386 -24571.213 33353.833 L -24574.55 33356.336 L -24576.22 33355.5 Z M -24445.193 33353 L -24444.358 33353 L -24446.862 33355.5 Z M -24364.24 33357.17 L -24364.24 33357.17 L -24365.908 33353.833 Z M -24486.087 33357.17 L -24486.087 33357.17 C -24483.546 33358.683 -24485.99 33357.606 -24482.748 33358.006 C -24486.254 33361.367 -24486.412 33358.458 -24486.92 33363.013 L -24488.59 33360.51 Z M -24471.064 33358.006 L -24468.56 33360.51 L -24468.56 33361.344 C -24471.315 33362.145 -24469.075 33360.71 -24471.9 33361.344 C -24471.62 33360.23 -24471.342 33359.12 -24471.064 33358.006 Z M -24429.336 33364.682 L -24429.336 33364.682 L -24428.5 33368.02 C -24430.14 33365.85 -24429.316 33367.238 -24429.336 33364.682 Z M -24477.74 33369.69 L -24477.74 33369.69 L -24477.74 33368.02 C -24476.98 33369.506 -24476.926 33368.233 -24477.74 33369.69 Z M -24439.35 33368.855 L -24438.516 33372.193 L -24439.35 33372.193 Z M -24471.064 33373.028 L -24470.23 33373.028 C -24470.508 33373.862 -24470.786 33374.697 -24471.064 33375.53 Z M -24466.057 33373.028 L -24465.222 33373.028 L -24466.89 33374.697 C -24466.613 33374.14 -24466.335 33373.584 -24466.057 33373.028 Z M -24446.862 33375.53 L -24446.027 33376.366 C -24445.808 33376.89 -24445.2 33377.1 -24446.027 33377.2 C -24446.825 33379.43 -24445.162 33378.083 -24447.696 33379.704 C -24446.01 33377.09 -24446.918 33378.416 -24446.862 33375.53 Z M -24405.968 33376.366 L -24405.133 33376.366 L -24405.968 33378.87 Z M -24538.665 33377.2 L -24536.16 33377.2 C -24536.717 33378.313 -24537.274 33379.426 -24537.83 33380.54 C -24539.468 33378.37 -24538.645 33379.756 -24538.665 33377.2 Z M -24474.403 33381.374 L -24471.9 33381.374 C -24472.177 33382.486 -24472.455 33383.6 -24472.733 33384.71 C -24473.29 33383.6 -24473.846 33382.486 -24474.403 33381.374 Z M -24461.884 33381.374 L -24461.05 33381.374 C -24461.328 33382.21 -24461.606 33383.043 -24461.884 33383.877 Z M -24432.674 33383.043 L -24432.674 33383.043 L -24432.674 33381.374 C -24431.913 33382.86 -24431.86 33381.586 -24432.674 33383.043 Z M -24481.08 33382.21 L -24481.08 33382.21 L -24478.575 33385.546 C -24481.08 33383.944 -24479.977 33385.402 -24481.08 33382.21 Z M -24518.635 33383.043 L -24516.966 33383.043 C -24516.688 33383.6 -24516.41 33384.155 -24516.13 33384.71 C -24519.136 33384.93 -24517.08 33385.62 -24518.635 33383.043 Z M -24425.163 33383.877 L -24425.163 33383.877 L -24421.825 33384.71 C -24424.294 33385.268 -24423.27 33385.607 -24425.163 33383.877 Z M -24485.252 33387.216 L -24484.417 33387.216 L -24486.087 33389.72 C -24485.808 33388.885 -24485.53 33388.05 -24485.252 33387.216 Z M -24378.427 33388.05 L -24377.592 33388.05 L -24378.427 33390.554 Z M -24405.133 33391.39 L -24405.133 33391.39 L -24407.637 33389.72 C -24405.146 33390.8 -24406.635 33389.684 -24405.133 33391.39 Z M -24417.652 33390.554 L -24416.817 33390.554 L -24418.486 33392.223 Z M -24401.795 33390.554 L -24400.126 33393.058 L -24401.795 33392.223 Z M -24436.012 33392.223 L -24433.51 33396.396 L -24434.343 33396.396 Z M -24413.48 33396.396 L -24413.48 33396.396 L -24415.148 33393.892 C -24413.464 33395.394 -24414.53 33393.873 -24413.48 33396.396 Z M -24402.63 33394.727 L -24401.795 33394.727 L -24401.795 33397.23 L -24403.464 33395.56 Z M -24466.89 33395.56 L -24466.057 33395.56 C -24466.335 33396.396 -24466.613 33397.23 -24466.89 33398.065 Z M -24395.953 33398.065 L -24395.953 33398.065 C -24394.27 33399.567 -24395.334 33398.046 -24394.284 33400.57 L -24395.118 33400.57 Z M -24480.245 33398.9 L -24480.245 33398.9 C -24479.966 33399.456 -24479.688 33400.012 -24479.41 33400.57 L -24481.08 33400.57 C -24480.8 33400.012 -24480.523 33399.456 -24480.245 33398.9 Z M -24377.592 33400.57 L -24377.592 33400.57 L -24380.096 33398.9 C -24377.605 33399.98 -24379.094 33398.865 -24377.592 33400.57 Z M -24447.696 33399.734 L -24445.193 33402.238 L -24447.696 33403.907 C -24447.024 33402.166 -24446.868 33403.087 -24448.53 33402.238 Z M -24407.637 33399.734 L -24406.802 33399.734 L -24407.637 33402.238 Z M -24415.148 33400.57 L -24414.313 33400.57 L -24415.983 33402.238 Z M -24658.008 33403.907 L -24657.174 33403.907 L -24655.505 33407.245 L -24658.008 33407.245 Z M -24411.81 33406.41 L -24409.306 33406.41 L -24411.81 33408.914 Z M -24471.9 33408.08 L -24471.064 33408.08 L -24472.733 33410.584 C -24472.455 33409.75 -24472.177 33408.914 -24471.9 33408.08 Z M -24469.395 33408.08 L -24469.395 33408.08 C -24469.117 33408.636 -24468.84 33409.193 -24468.56 33409.75 L -24469.395 33410.584 Z M -24441.02 33408.08 L -24441.02 33408.08 L -24437.68 33408.08 C -24440.027 33409.986 -24438.683 33409.894 -24441.02 33408.08 Z M -24400.126 33408.08 L -24397.622 33409.75 L -24400.96 33409.75 Z M -24396.787 33408.08 L -24393.45 33408.08 L -24395.118 33409.75 Z M -24659.678 33408.914 L -24661.347 33410.584 L -24661.347 33409.75 Z M -24445.193 33408.914 L -24444.358 33408.914 C -24446.027 33410.373 -24444.507 33410.73 -24446.862 33409.75 Z M -24542.838 33410.584 L -24542.003 33410.584 L -24542.838 33413.087 Z M -24541.168 33410.584 L -24540.334 33410.584 L -24541.168 33413.087 Z M -24461.884 33410.584 L -24460.215 33410.584 C -24458.95 33411.78 -24455.7 33411.155 -24451.87 33411.42 L -24462.72 33412.253 Z M -24434.343 33412.253 L -24432.674 33413.087 L -24434.343 33414.756 Z M -24399.29 33412.253 L -24399.29 33412.253 C -24396.787 33413.855 -24397.89 33412.397 -24396.787 33415.59 C -24399.474 33413.397 -24397.872 33416.175 -24399.29 33412.253 Z M -24443.523 33413.92 L -24440.185 33415.59 L -24444.358 33416.426 L -24444.358 33415.59 Z M -24447.696 33414.756 L -24447.696 33414.756 C -24446.012 33416.26 -24447.078 33414.737 -24446.027 33417.26 L -24446.862 33417.26 Z M -24425.163 33414.756 L -24425.163 33414.756 L -24424.328 33418.095 C -24425.566 33416.032 -24424.973 33416.667 -24425.163 33414.756 Z M -24427.667 33416.426 L -24426.832 33416.426 L -24428.5 33418.095 Z M -24407.637 33416.426 L -24409.306 33418.095 L -24409.306 33417.26 Z M -24567.04 33418.095 L -24567.04 33418.095 C -24564.73 33419.06 -24566.993 33418.575 -24564.536 33418.095 L -24567.04 33420.6 Z M -24415.983 33418.93 L -24414.313 33418.93 L -24415.148 33420.6 Z M -24410.975 33418.93 L -24410.14 33418.93 L -24410.975 33421.433 Z M -24619.618 33419.764 L -24619.618 33419.764 C -24617.31 33420.73 -24619.57 33420.245 -24617.114 33419.764 L -24617.95 33422.268 Z M -24410.14 33422.268 L -24408.47 33422.268 L -24410.14 33425.606 Z M -24465.222 33423.937 L -24464.388 33423.937 L -24466.057 33425.606 Z M -24521.14 33424.77 L -24520.304 33424.77 L -24521.14 33427.275 Z M -24441.02 33425.606 L -24439.35 33425.606 L -24441.02 33428.11 Z M -24368.412 33425.606 L -24368.412 33425.606 C -24365.112 33426.974 -24367.753 33425.91 -24365.908 33429.78 L -24367.577 33431.448 C -24368.913 33430.03 -24368.473 33427.98 -24368.412 33425.606 Z M -24461.884 33426.44 L -24461.884 33426.44 L -24459.38 33428.11 C -24461.871 33427.03 -24460.382 33428.145 -24461.884 33426.44 Z M -24651.332 33427.275 L -24648.828 33427.275 C -24650.44 33429.272 -24649.33 33428.655 -24652.166 33429.78 C -24650.77 33427.555 -24651.73 33429.412 -24651.332 33427.275 Z M -24447.696 33428.944 L -24446.862 33428.944 L -24446.027 33430.613 L -24449.365 33429.78 Z M -24436.847 33428.944 L -24436.012 33428.944 L -24436.847 33431.448 Z M -24613.776 33429.78 L -24612.942 33433.95 L -24616.28 33435.62 L -24615.445 33430.613 L -24613.776 33433.117 Z M -24471.064 33429.78 L -24469.395 33431.448 L -24471.9 33431.448 Z M -24467.726 33430.613 L -24466.89 33430.613 L -24468.56 33432.282 Z M -24634.64 33431.448 L -24633.806 33431.448 L -24634.64 33433.95 Z M -24487.756 33431.448 L -24487.756 33431.448 L -24486.087 33431.448 C -24487.4 33432.478 -24486.708 33432.747 -24487.756 33431.448 Z M -24443.523 33431.448 L -24443.523 33431.448 C -24438.916 33431.95 -24431.172 33432.887 -24428.5 33437.29 C -24431.884 33435.002 -24436.388 33436.2 -24443.523 33436.455 L -24441.02 33435.62 C -24442.013 33432.923 -24442.18 33433.35 -24443.523 33431.448 Z M -24465.222 33433.117 L -24464.388 33433.117 L -24466.057 33434.786 Z M -24380.096 33433.117 L -24379.26 33433.117 L -24380.93 33435.62 Z M -24452.704 33435.62 L -24452.704 33435.62 L -24450.2 33435.62 C -24452.565 33436.443 -24450.6 33436.98 -24452.704 33435.62 Z M -24649.663 33438.124 L -24647.16 33438.124 L -24649.663 33440.63 Z M -24454.373 33438.124 L -24453.538 33438.96 L -24455.207 33440.63 Z M -24427.667 33438.124 L -24427.667 33438.124 C -24426.142 33439.46 -24426.022 33440.267 -24425.163 33442.297 C -24427.343 33440.63 -24426.832 33441.37 -24427.667 33438.124 Z M -24462.72 33439.794 L -24461.05 33439.794 L -24462.72 33442.297 Z M -24535.326 33440.63 L -24534.492 33440.63 L -24536.16 33442.297 Z M -24476.906 33441.463 L -24476.072 33441.463 L -24477.74 33443.13 Z M -24467.726 33443.966 L -24464.388 33443.966 C -24465.86 33446.287 -24464.104 33445.378 -24466.89 33447.305 L -24467.726 33447.305 Z M -24427.667 33443.966 L -24425.997 33443.966 L -24428.5 33445.636 Z M -24478.575 33447.305 L -24478.575 33447.305 L -24478.575 33444.8 C -24477.6 33446.804 -24476.506 33445.896 -24478.575 33447.305 Z M -24432.674 33444.8 L -24432.674 33444.8 C -24429.871 33449.11 -24434.402 33447.805 -24431.005 33450.643 L -24457.71 33450.643 L -24458.546 33448.974 C -24448.17 33447.01 -24444.525 33448.58 -24432.674 33448.14 L -24431.84 33446.47 Z M -24651.332 33448.14 L -24649.663 33448.14 L -24649.663 33450.643 L -24652.166 33450.643 Z M -24442.69 33453.98 L -24440.185 33458.99 L -24441.854 33458.99 C -24442.867 33463.404 -24445.015 33462.872 -24450.2 33463.16 L -24451.035 33463.16 L -24451.87 33461.492 C -24447.613 33460.4 -24444.807 33457.04 -24442.69 33453.98 Z M -24498.605 33457.32 L -24497.77 33457.32 L -24499.44 33458.99 Z M -24471.064 33459.823 L -24471.064 33459.823 L -24472.733 33458.154 Z M -24478.575 33460.658 L -24476.906 33462.327 L -24479.41 33462.327 Z M -24454.373 33460.658 L -24452.704 33462.327 C -24455.892 33460.81 -24454.212 33462.828 -24454.373 33465.665 L -24456.042 33465.665 L -24456.042 33464.83 C -24455.178 33462.683 -24455.732 33462.844 -24454.373 33460.658 Z M -24432.674 33460.658 L -24431.005 33460.658 C -24431.704 33462.81 -24430.982 33463.522 -24432.674 33465.665 Z M -24486.087 33462.327 L -24486.087 33462.327 L -24483.583 33462.327 C -24485.586 33463.303 -24484.678 33464.397 -24486.087 33462.327 Z M -24478.575 33466.5 L -24478.575 33466.5 C -24476.89 33468.002 -24477.957 33466.48 -24476.906 33469.004 L -24478.575 33467.334 L -24479.41 33469.004 Z M -24471.9 33467.334 L -24469.395 33469.004 L -24469.395 33469.84 Z M -24484.417 33468.17 L -24479.41 33473.176 L -24485.252 33469.84 Z M -24446.862 33471.507 L -24446.862 33471.507 L -24449.365 33469.84 Z M -24463.553 33474.01 L -24463.553 33474.01 C -24461.788 33475.58 -24464.11 33474.896 -24461.884 33475.68 L -24462.72 33477.35 L -24464.388 33475.68 Z M -24440.185 33474.846 L -24439.35 33474.846 L -24438.516 33476.515 L -24441.02 33476.515 Z M -24411.81 33474.846 L -24412.644 33478.184 L -24414.313 33476.515 Z M -24643.82 33475.68 L -24641.317 33477.35 L -24643.82 33479.853 L -24644.655 33479.02 Z M -24453.538 33475.68 L -24453.538 33475.68 C -24451.047 33476.76 -24452.537 33475.645 -24451.035 33477.35 L -24455.207 33478.184 Z M -24448.53 33478.184 L -24448.53 33478.184 L -24445.193 33475.68 C -24442.605 33476.31 -24447.877 33477.883 -24448.53 33478.184 Z M -24417.652 33476.515 L -24417.652 33476.515 C -24417.52 33478.702 -24416.743 33477.11 -24418.486 33479.02 Z M -24481.914 33478.184 L -24481.08 33478.184 L -24481.08 33480.688 C -24482.728 33478.64 -24481.56 33480.354 -24481.914 33478.184 Z M -24506.116 33479.02 L -24505.282 33479.853 L -24506.95 33481.522 Z M -24426.832 33480.688 L -24426.832 33480.688 L -24428.5 33479.02 Z M -24647.994 33481.522 L -24646.324 33481.522 L -24646.324 33484.026 L -24648.828 33483.19 Z M -24411.81 33481.522 L -24410.975 33481.522 L -24411.81 33484.026 Z M -24496.101 33485.695 L -24495.267 33485.695 L -24496.936 33487.364 Z M -24481.08 33487.364 L -24481.08 33487.364 C -24481.457 33488.29 -24480.364 33487.993 -24481.914 33489.033 Z M -24494.432 33489.868 L -24493.598 33489.868 L -24495.267 33491.537 Z M -24440.185 33489.868 L -24439.35 33490.703 L -24441.854 33493.206 Z M -24466.057 33492.37 L -24466.057 33492.37 L -24465.222 33490.703 C -24465.6 33491.626 -24464.507 33491.33 -24466.057 33492.37 Z M -24504.447 33491.537 L -24501.943 33493.206 L -24505.282 33493.206 Z M -24516.966 33492.37 L -24516.13 33492.37 L -24517.8 33494.04 Z M -24440.185 33493.206 L -24439.35 33493.206 L -24439.35 33495.71 L -24441.854 33494.875 Z M -24433.51 33497.38 L -24433.51 33497.38 L -24432.674 33494.04 C -24431.985 33496.365 -24432.236 33495.47 -24433.51 33497.38 Z M -24392.615 33494.875 L -24392.615 33494.875 C -24392.058 33496.266 -24391.502 33497.657 -24390.945 33499.05 L -24392.615 33497.38 Z M -24642.152 33495.71 L -24639.648 33497.38 L -24642.152 33499.05 Z M -24592.077 33495.71 L -24592.077 33495.71 C -24591.508 33498.494 -24591.26 33497.24 -24593.746 33499.05 Z M -24441.854 33496.545 L -24438.516 33496.545 C -24440.32 33500.307 -24439.285 33495.76 -24441.854 33499.05 L -24444.358 33497.38 Z M -24464.388 33500.717 L -24464.388 33500.717 L -24464.388 33499.05 C -24463.627 33500.534 -24463.572 33499.26 -24464.388 33500.717 Z M -24444.358 33499.05 L -24444.358 33499.05 C -24442.795 33501.827 -24443.033 33500.245 -24444.358 33502.387 Z M -24486.92 33499.883 L -24485.252 33501.55 L -24486.92 33503.22 Z M -24467.726 33501.55 L -24466.89 33501.55 L -24468.56 33503.22 Z M -24452.704 33503.22 L -24452.704 33503.22 L -24455.207 33501.55 C -24452.716 33502.63 -24454.206 33501.517 -24452.704 33503.22 Z M -24658.008 33502.387 L -24657.174 33502.387 L -24658.008 33504.89 Z M -24478.575 33504.056 L -24478.575 33504.056 L -24480.245 33502.387 Z M -24661.347 33504.89 L -24660.512 33508.23 L -24661.347 33508.23 Z M -24441.02 33506.56 L -24441.02 33506.56 L -24443.523 33504.89 Z M -24411.81 33506.56 L -24410.975 33506.56 L -24412.644 33509.063 Z M -24467.726 33509.898 L -24466.057 33509.898 L -24468.56 33511.567 Z M -24490.26 33511.567 L -24490.26 33511.567 C -24489.175 33512.835 -24489.98 33511.59 -24490.26 33513.236 L -24488.59 33514.07 L -24491.094 33514.905 C -24490.816 33513.792 -24490.538 33512.68 -24490.26 33511.567 Z M -24424.328 33513.236 L -24423.494 33514.07 L -24425.163 33515.74 Z M -24420.99 33514.07 L -24419.32 33514.07 L -24418.486 33516.574 L -24420.155 33517.41 C -24420.28 33515.177 -24420.24 33516.902 -24420.99 33514.07 Z M -24494.432 33514.905 L -24494.432 33514.905 C -24494.154 33516.018 -24493.876 33517.13 -24493.598 33518.243 L -24494.432 33518.243 Z M -24378.427 33518.243 L -24377.592 33518.243 C -24379.26 33519.702 -24377.742 33520.06 -24380.096 33519.078 Z M -24596.25 33524.92 L -24595.416 33524.92 L -24596.25 33527.424 Z M -24515.297 33524.92 L -24514.462 33524.92 L -24512.793 33527.424 L -24515.297 33528.26 Z M -24441.854 33527.424 L -24441.02 33527.424 L -24440.185 33529.927 L -24443.523 33529.927 L -24443.523 33529.093 Z M -24383.434 33527.424 L -24382.6 33527.424 L -24384.27 33529.093 Z M -24628.798 33528.26 L -24628.798 33528.26 L -24627.13 33531.597 C -24629.312 33529.518 -24628.418 33530.49 -24628.798 33528.26 Z M -24382.6 33529.093 L -24381.765 33532.43 L -24382.6 33532.43 Z M -24440.185 33533.266 L -24440.185 33533.266 L -24441.02 33535.77 L -24440.185 33538.273 C -24441.7 33535.077 -24441.02 33536.136 -24440.185 33533.266 Z M -24453.538 33534.935 L -24453.538 33534.935 C -24451.314 33536.33 -24453.172 33535.37 -24451.035 33535.77 L -24452.704 33537.44 Z M -24433.51 33534.935 L -24431.84 33534.935 L -24432.674 33536.604 Z M -24410.14 33535.77 L -24408.47 33538.273 L -24410.975 33538.273 Z M -24444.358 33538.273 L -24444.358 33538.273 L -24444.358 33536.604 C -24443.597 33538.09 -24443.543 33536.817 -24444.358 33538.273 Z M -24435.178 33537.44 L -24432.674 33539.108 L -24432.674 33539.942 L -24436.847 33539.942 C -24434.7 33537.876 -24435.626 33539.72 -24435.178 33537.44 Z M -24446.027 33538.273 L -24446.027 33538.273 C -24441.766 33540.52 -24439.517 33537.183 -24436.847 33544.115 C -24440.64 33540.796 -24443.327 33542.71 -24446.027 33538.273 Z M -24404.299 33539.108 L -24403.464 33539.108 L -24402.63 33541.61 L -24405.133 33541.61 C -24403.737 33539.387 -24404.697 33541.245 -24404.299 33539.108 Z M -24636.31 33544.115 L -24636.31 33544.115 L -24642.986 33542.446 C -24639.195 33542.523 -24638.203 33542.6 -24636.31 33544.115 Z M -24617.114 33548.288 L -24617.114 33548.288 L -24617.114 33545.784 C -24616.138 33547.787 -24615.045 33546.88 -24617.114 33548.288 Z M -24486.087 33545.784 L -24485.252 33546.62 L -24486.92 33548.288 Z M -24480.245 33547.453 L -24479.41 33547.453 L -24481.08 33549.123 Z M -24498.605 33549.123 L -24497.77 33549.123 L -24499.44 33550.79 Z M -24484.417 33549.123 L -24482.748 33550.79 L -24482.748 33551.626 C -24485.29 33550.016 -24483.917 33551.585 -24484.417 33549.123 Z M -24453.538 33549.123 L -24452.704 33552.46 L -24453.538 33552.46 Z M -24414.313 33550.79 L -24411.81 33550.79 L -24413.48 33553.295 L -24413.48 33554.965 C -24415.482 33552.544 -24413.62 33554.425 -24414.313 33550.79 Z M -24410.975 33550.79 L -24410.14 33550.79 L -24410.975 33553.295 Z M -24398.457 33551.626 L -24396.787 33551.626 L -24397.622 33553.295 Z M -24612.107 33553.295 L -24612.107 33553.295 L -24615.445 33552.46 Z M -24440.185 33553.295 L -24437.68 33553.295 L -24438.516 33556.634 Z M -24614.61 33554.13 L -24614.61 33554.13 C -24612.024 33554.76 -24617.295 33556.333 -24617.95 33556.634 Z M -24442.69 33558.303 L -24441.854 33559.97 L -24443.523 33559.97 Z M -24421.825 33559.97 L -24419.32 33560.807 L -24419.32 33563.31 L -24420.155 33563.31 Z M -24456.877 33560.807 L -24456.042 33560.807 L -24456.877 33563.31 Z M -24404.299 33562.476 L -24402.63 33564.145 C -24402.63 33564.145 -24406.658 33565.88 -24404.299 33565.814 L -24404.299 33566.65 C -24407.49 33564.93 -24405.477 33565.837 -24406.802 33563.31 C -24404.632 33562.95 -24406.35 33564.106 -24404.299 33562.476 Z M -24456.042 33566.65 L -24455.207 33566.65 L -24456.877 33568.318 Z M -24413.48 33568.318 L -24413.48 33568.318 C -24411.778 33569.95 -24412.57 33568.61 -24411.81 33571.656 L -24415.148 33569.987 Z M -24405.133 33568.318 L -24405.133 33568.318 L -24401.795 33568.318 C -24404.478 33569.764 -24402.457 33569.72 -24405.133 33568.318 Z M -24466.89 33569.987 L -24466.89 33569.987 C -24466.613 33572.77 -24466.335 33575.55 -24466.057 33578.333 L -24469.395 33577.5 Z M -24661.347 33570.82 L -24659.678 33570.82 L -24658.843 33572.49 C -24661.847 33572.71 -24659.79 33573.397 -24661.347 33570.82 Z M -24439.35 33572.49 L -24439.35 33572.49 L -24438.516 33570.82 C -24438.894 33571.745 -24437.8 33571.45 -24439.35 33572.49 Z M -24606.265 33573.325 L -24605.43 33573.325 L -24607.1 33574.994 Z M -24465.222 33574.16 L -24463.553 33574.16 L -24466.057 33575.83 Z M -24401.795 33579.167 L -24401.795 33579.167 L -24400.126 33576.663 C -24400.563 33578.325 -24399.176 33577.686 -24401.795 33579.167 Z M -24614.61 33580.836 L -24614.61 33580.836 C -24612.12 33581.915 -24613.61 33580.8 -24612.107 33582.505 C -24614.365 33582.81 -24612.305 33582.22 -24614.61 33583.34 Z M -24453.538 33582.505 L -24452.704 33582.505 L -24454.373 33584.175 Z M -24436.012 33583.34 L -24435.178 33583.34 L -24436.847 33585.01 Z M -24433.51 33583.34 L -24433.51 33583.34 C -24431.493 33584.24 -24430.678 33584.31 -24429.336 33585.844 L -24434.343 33585.01 Z M -24410.975 33584.175 L -24410.14 33584.175 L -24409.306 33585.844 L -24410.975 33587.513 L -24411.81 33587.513 Z M -24439.35 33585.844 L -24436.847 33588.347 L -24438.516 33590.017 C -24439.568 33587.903 -24437.837 33588.583 -24440.185 33588.347 Z M -24393.45 33585.844 L -24392.615 33589.182 L -24393.45 33589.182 Z M -24458.546 33586.68 L -24457.71 33587.513 L -24459.38 33589.182 Z M -24431.84 33587.513 L -24433.51 33589.182 L -24433.51 33588.347 Z M -24418.486 33588.347 L -24417.652 33589.182 L -24418.486 33591.686 L -24420.155 33590.017 Z M -24608.77 33591.686 L -24607.934 33591.686 L -24608.77 33594.19 Z M -24436.012 33591.686 L -24436.012 33591.686 C -24435.25 33593.17 -24435.197 33591.9 -24436.012 33593.355 Z M -24422.66 33591.686 L -24421.825 33591.686 L -24421.825 33594.19 L -24424.328 33594.19 Z M -24431.84 33592.52 L -24430.17 33592.52 L -24434.343 33595.024 Z M -24448.53 33595.024 L -24448.53 33595.024 L -24445.193 33596.693 C -24447.977 33597.262 -24446.72 33597.51 -24448.53 33595.024 Z M -24462.72 33597.528 L -24461.884 33597.528 L -24463.553 33599.197 Z M -24455.207 33598.362 L -24452.704 33598.362 L -24452.704 33599.197 L -24455.207 33600.866 Z M -24414.313 33599.197 L -24413.48 33599.197 L -24414.313 33601.7 Z M -24518.635 33603.37 L -24517.8 33603.37 L -24517.8 33605.873 C -24519.45 33603.825 -24518.28 33605.54 -24518.635 33603.37 Z M -24614.61 33604.204 L -24612.942 33604.204 L -24612.942 33606.71 L -24615.445 33606.71 Z M -24422.66 33613.385 L -24421.825 33615.054 L -24423.494 33615.054 Z M -24425.997 33618.392 L -24425.163 33618.392 L -24427.667 33620.896 Z M -24648.828 33623.4 L -24648.828 33623.4 C -24649.19 33623.884 -24648.402 33624.386 -24651.332 33625.07 L -24651.332 33624.234 Z M -24471.064 33628.407 L -24471.064 33628.407 L -24468.56 33628.407 C -24469.13 33630.845 -24469.943 33630.645 -24471.064 33628.407 Z M -24654.67 33630.076 L -24653.836 33630.076 L -24653 33632.58 C -24654.685 33631.078 -24653.62 33632.6 -24654.67 33630.076 Z M -24597.085 33630.076 L -24596.25 33630.076 L -24597.92 33631.745 Z M -24441.02 33630.91 L -24441.02 33630.91 C -24437.827 33632.63 -24439.84 33631.723 -24438.516 33634.25 Z M -24413.48 33630.91 L -24410.14 33630.91 C -24412.055 33633.01 -24412.06 33632.6 -24412.644 33634.25 L -24415.148 33634.25 Z M -24418.486 33633.414 L -24417.652 33633.414 L -24419.32 33635.083 Z M -24452.704 33635.083 L -24453.538 33637.587 L -24453.538 33639.256 L -24454.373 33639.256 Z M -24425.163 33635.083 L -24423.494 33637.587 L -24425.997 33636.753 Z M -24420.155 33638.42 L -24417.652 33640.925 L -24420.99 33640.09 Z M -24416.817 33638.42 L -24415.983 33638.42 L -24416.817 33640.925 Z M -24636.31 33639.256 L -24633.806 33640.09 L -24637.144 33641.76 Z M -24597.92 33640.09 L -24597.92 33640.09 L -24594.58 33640.09 C -24597.264 33641.537 -24595.243 33641.493 -24597.92 33640.09 Z M -24414.313 33640.925 L -24414.313 33640.925 C -24414.182 33643.113 -24413.405 33641.522 -24415.148 33643.43 Z M -24407.637 33642.595 L -24407.637 33642.595 L -24410.14 33640.925 Z M -24420.155 33641.76 L -24416.817 33642.595 L -24420.155 33643.43 Z M -24463.553 33645.1 L -24463.553 33645.1 L -24465.222 33642.595 L -24463.553 33644.264 C -24463.334 33644.79 -24462.725 33644.997 -24463.553 33645.1 L -24465.222 33647.602 L -24466.057 33647.602 C -24464.54 33644.655 -24466.543 33646.586 -24463.553 33645.1 Z M -24642.986 33643.43 L -24641.317 33644.264 L -24643.82 33645.933 Z M -24407.637 33643.43 L -24406.802 33643.43 L -24407.637 33645.933 Z M -24653.836 33645.933 L -24653 33645.933 L -24654.67 33648.437 Z M -24425.997 33650.106 L -24425.997 33650.106 L -24427.667 33648.437 Z M -24437.68 33649.27 L -24434.343 33653.444 L -24436.847 33652.61 L -24437.68 33654.28 Z M -24445.193 33651.775 L -24445.193 33651.775 L -24441.02 33651.775 C -24443.474 33653.513 -24442.48 33653.12 -24445.193 33651.775 Z M -24432.674 33651.775 L -24432.674 33651.775 L -24429.336 33652.61 C -24431.805 33653.165 -24430.78 33653.505 -24432.674 33651.775 Z M -24417.652 33652.61 L -24415.983 33654.28 L -24418.486 33654.28 Z M -24661.347 33655.948 L -24661.347 33655.948 C -24657.482 33657.648 -24658.645 33657.677 -24655.505 33656.782 C -24653.327 33660.237 -24654.342 33661.273 -24649.663 33662.624 L -24653 33663.46 C -24655.548 33661.2 -24659.28 33658.663 -24661.347 33655.948 Z M -24451.87 33659.286 L -24451.87 33659.286 L -24453.538 33657.617 Z M -24585.4 33660.955 L -24585.4 33660.955 L -24587.07 33659.286 Z M -24632.97 33660.12 L -24630.468 33660.12 L -24632.137 33661.79 L -24637.144 33662.624 C -24635.513 33661.645 -24634.223 33661.498 -24632.97 33660.12 Z M -24585.4 33663.46 L -24585.4 33663.46 L -24587.07 33661.79 Z M -24581.228 33663.46 L -24579.56 33665.963 C -24581.3 33665.29 -24580.38 33665.135 -24581.228 33666.797 L -24582.062 33666.797 Z M -24433.51 33665.963 L -24433.51 33665.963 L -24436.012 33663.46 Z M -24430.17 33664.294 L -24429.336 33664.294 L -24429.336 33667.63 L -24431.84 33667.63 Z M -24646.324 33665.963 L -24645.49 33665.963 L -24645.49 33668.466 C -24647.14 33666.42 -24645.97 33668.133 -24646.324 33665.963 Z M -24481.08 33665.963 L -24481.08 33665.963 C -24479.395 33667.465 -24480.46 33665.943 -24479.41 33668.466 L -24481.08 33668.466 Z M -24494.432 33672.64 L -24493.598 33672.64 L -24494.432 33675.143 Z M -24567.04 33675.143 L -24565.37 33676.812 L -24568.71 33675.978 Z M -24569.544 33677.647 L -24569.544 33677.647 L -24567.04 33677.647 C -24569.043 33678.623 -24568.135 33679.716 -24569.544 33677.647 Z M -24621.287 33678.48 L -24618.784 33678.48 L -24620.453 33679.316 L -24619.618 33680.985 L -24622.122 33680.985 Z M -24551.183 33681.82 L -24550.35 33681.82 L -24551.183 33684.323 Z M -24508.62 33682.654 L -24507.785 33682.654 L -24508.62 33685.158 Z M -24506.116 33685.992 L -24505.282 33685.992 C -24506.754 33688.312 -24504.998 33687.404 -24507.785 33689.33 C -24507.23 33688.218 -24506.673 33687.105 -24506.116 33685.992 Z M -24558.694 33689.33 L -24558.694 33689.33 L -24560.364 33687.66 Z M -24572.048 33689.33 L -24572.048 33689.33 C -24571.77 33689.887 -24571.49 33690.443 -24571.213 33691 L -24572.882 33691 C -24572.604 33690.443 -24572.326 33689.887 -24572.048 33689.33 Z M -24546.176 33693.504 L -24545.34 33693.504 L -24546.176 33696.007 Z M -24566.206 33694.34 L -24566.206 33694.34 L -24563.702 33694.34 C -24566.067 33695.16 -24564.102 33695.696 -24566.206 33694.34 Z M -24553.687 33698.51 L -24552.018 33698.51 L -24552.852 33701.015 L -24554.522 33699.346 Z M -24577.89 33700.18 L -24573.717 33702.684 L -24576.22 33703.52 C -24576.777 33702.406 -24577.333 33701.293 -24577.89 33700.18 Z M -24632.97 33701.015 L -24631.302 33702.684 L -24632.97 33703.52 Z M -24510.29 33703.52 L -24511.958 33705.188 L -24511.958 33704.353 Z M -24579.56 33708.526 L -24579.56 33708.526 L -24584.566 33706.022 Z M -24576.22 33707.69 L -24575.386 33707.69 L -24576.22 33710.195 Z M -24506.95 33707.69 L -24505.282 33708.526 L -24506.95 33710.195 Z M -24562.867 33709.36 L -24561.198 33709.36 L -24561.198 33711.864 Z M -24541.168 33710.195 L -24540.334 33713.533 L -24541.168 33713.533 Z M -24571.213 33713.533 L -24571.213 33713.533 L -24572.882 33711.03 C -24571.198 33712.53 -24572.264 33711.01 -24571.213 33713.533 Z M -24509.455 33711.03 L -24508.62 33711.03 C -24506.925 33719.404 -24523.054 33733.692 -24521.973 33742.743 C -24524.203 33743.54 -24522.855 33741.878 -24524.477 33744.412 C -24533.856 33739.906 -24543.917 33737.34 -24550.35 33729.39 C -24553.405 33727.73 -24551.762 33729.784 -24552.852 33726.05 L -24525.311 33741.91 C -24524.69 33737.22 -24525.118 33733.715 -24521.14 33732.73 L -24523.642 33728.556 C -24518.047 33727.73 -24510.04 33713.1 -24509.455 33711.03 Z M -24567.875 33714.368 L -24565.37 33716.037 L -24566.206 33718.54 L -24567.875 33716.87 L -24569.544 33716.037 Z M -24503.613 33723.55 L -24501.11 33723.55 L -24501.11 33726.05 L -24503.613 33726.05 Z M -24451.035 33726.886 L -24451.035 33726.886 C -24448.02 33727.47 -24448.518 33727.22 -24446.862 33728.556 Z M -24541.168 33728.556 L -24538.665 33728.556 C -24538.386 33729.11 -24538.108 33729.67 -24537.83 33730.225 L -24537.83 33731.06 L -24540.334 33731.894 Z M -24441.02 33744.412 L -24441.02 33744.412 C -24433.102 33744.673 -24432.147 33745.59 -24426.832 33744.412 L -24429.336 33747.75 C -24422.393 33748.742 -24422.935 33753.15 -24419.32 33753.593 C -24424.746 33760.455 -24432.31 33753.25 -24441.02 33755.26 Z M -24632.137 33748.585 L -24630.468 33748.585 L -24630.468 33751.09 Z M -24409.306 33751.09 L -24406.802 33751.09 L -24406.802 33751.924 C -24409.4 33751.457 -24407.35 33752.86 -24409.306 33751.09 Z M -24580.393 33762.773 L -24577.89 33763.608 L -24577.89 33766.11 L -24578.724 33766.11 C -24579.28 33765 -24579.837 33763.886 -24580.393 33762.773 Z M -24496.101 33773.622 L -24496.101 33773.622 C -24493.3 33774.778 -24494.36 33774.103 -24492.763 33776.126 C -24496.46 33774.987 -24494.462 33776.734 -24496.101 33773.622 Z M -24621.287 33778.63 L -24619.618 33779.464 L -24621.287 33781.134 L -24622.122 33779.464 Z M -24540.334 33781.97 L -24537.83 33782.803 L -24539.5 33784.47 Z M -24471.9 33781.97 L -24471.064 33781.97 L -24471.9 33784.47 Z M -24470.23 33781.97 L -24469.395 33781.97 L -24470.23 33784.47 Z M -24480.245 33783.637 L -24480.245 33783.637 L -24477.74 33785.306 C -24480.232 33784.227 -24478.742 33785.34 -24480.245 33783.637 Z M -24627.13 33786.976 L -24627.13 33786.976 C -24624.904 33788.37 -24626.763 33787.41 -24624.626 33787.81 L -24626.295 33789.48 Z M -24571.213 33790.314 L -24571.213 33790.314 L -24573.717 33788.645 Z M -24534.492 33788.645 L -24533.657 33788.645 L -24534.492 33791.15 Z M -24545.34 33791.15 L -24544.507 33791.15 L -24546.176 33792.818 C -24545.898 33792.26 -24545.62 33791.705 -24545.34 33791.15 Z M -24406.802 33793.652 L -24406.802 33793.652 C -24405.118 33795.154 -24406.184 33793.633 -24405.133 33796.156 L -24405.968 33796.156 Z M -24516.966 33795.32 L -24513.627 33796.156 L -24517.8 33796.99 C -24517.522 33796.434 -24517.244 33795.878 -24516.966 33795.32 Z M -24470.23 33796.99 L -24470.23 33796.988 C -24470.51 33796.432 -24470.787 33795.877 -24471.064 33795.32 C -24469.564 33796.425 -24470.58 33796.216 -24470.23 33796.99 C -24470.23 33796.99 -24470.23 33796.99 -24470.23 33796.988 C -24470.23 33796.99 -24470.23 33796.99 -24470.23 33796.99 Z M -24442.69 33796.156 L -24442.69 33796.156 L -24440.185 33796.156 C -24442.55 33796.978 -24440.586 33797.514 -24442.69 33796.156 Z M -24467.726 33798.66 L -24466.89 33798.66 L -24466.89 33801.163 L -24468.56 33799.494 Z M -24405.968 33798.66 L -24403.464 33798.66 L -24403.464 33801.998 L -24406.802 33800.33 Z M -24457.71 33799.494 L -24455.207 33801.163 C -24457.853 33800.913 -24456.865 33800.97 -24459.38 33801.998 Z M -24495.267 33807.84 L -24494.432 33807.84 L -24493.598 33810.344 C -24495.282 33808.84 -24494.216 33810.363 -24495.267 33807.84 Z M -24434.343 33810.344 L -24434.343 33810.344 L -24439.35 33808.674 C -24435.99 33809.05 -24436.096 33808.937 -24434.343 33810.344 Z M -24474.403 33809.51 L -24472.733 33809.51 C -24472.455 33810.065 -24472.177 33810.62 -24471.9 33811.18 C -24474.82 33810.457 -24473.002 33812.172 -24474.403 33809.51 Z M -24405.968 33811.18 L -24403.464 33813.68 L -24406.802 33812.847 Z M -24451.035 33820.36 L -24450.2 33820.36 L -24451.87 33823.697 Z M -24375.923 33822.028 L -24375.923 33822.028 L -24371.75 33822.028 C -24374.106 33823.602 -24373.66 33824.257 -24375.923 33822.028 Z M -24390.945 33826.2 L -24390.945 33826.2 L -24390.945 33824.53 C -24390.184 33826.017 -24390.13 33824.744 -24390.945 33826.2 Z M -24431.005 33825.366 L -24430.17 33827.035 L -24428.5 33827.87 L -24428.5 33828.704 L -24431.005 33828.704 Z M -24386.773 33826.2 L -24386.773 33826.2 C -24386.086 33828.254 -24386.463 33826.914 -24387.607 33828.704 Z M -24511.124 33827.035 L -24510.29 33827.035 L -24511.124 33829.54 Z M -24645.49 33830.373 L -24643.82 33830.373 L -24643.82 33832.877 L -24646.324 33832.043 Z M -24386.773 33832.043 L -24386.773 33832.043 C -24387.15 33832.966 -24386.057 33832.67 -24387.607 33833.71 Z M -24547.845 33834.546 L -24546.176 33834.546 L -24548.68 33836.215 C -24548.4 33835.66 -24548.123 33835.103 -24547.845 33834.546 Z M -24419.32 33834.546 L -24419.32 33834.546 C -24417.637 33836.05 -24418.702 33834.527 -24417.652 33837.05 Z M -24576.22 33835.38 L -24574.55 33835.38 L -24574.55 33836.215 L -24576.22 33837.885 L -24577.055 33837.05 C -24576.777 33836.494 -24576.5 33835.937 -24576.22 33835.38 Z M -24381.765 33837.05 L -24381.765 33837.05 L -24383.434 33835.38 Z M -24378.427 33835.38 L -24376.758 33837.05 L -24379.26 33837.05 Z M -24426.832 33847.065 L -24426.832 33847.065 L -24428.5 33845.396 Z M -24699 33098 L -24699 33886.307 L -23910.693 33886.307 L -23910.693 33098 Z M -24380.64 33514.79 C -24381.717 33514.54 -24382.915 33514.317 -24384.27 33514.07 L -24384.27 33513.236 Z M -24496.032 33260.35 L -24496.032 33260.35 C -24496.024 33260.17 -24496.04 33259.907 -24496.101 33259.526 C -24495.888 33260.036 -24495.31 33260.246 -24496.032 33260.35 Z M -24496.043 33260.48 C -24496.043 33260.48 -24496.043 33260.48 -24496.043 33260.48 Z M -24476.792 33364.22 L -24476.792 33364.22 C -24476.773 33363.994 -24476.78 33363.63 -24476.906 33363.013 C -24475.947 33364.134 -24476.466 33363.29 -24476.792 33364.22 Z M -24476.722 33364.682 L -24475.237 33364.682 L -24475.237 33365.517 C -24476.137 33364.947 -24476.547 33364.775 -24476.722 33364.682 Z M -24494.64 33483.296 L -24496.101 33484.026 L -24495.267 33482.357 Z M -24459.722 33567.313 C -24462.173 33566.125 -24460.458 33567.846 -24461.884 33564.98 C -24460.262 33565.903 -24461.65 33564.88 -24461.05 33566.65 Z M -24462.637 33659.275 L -24462.637 33659.275 C -24462.64 33659.07 -24462.663 33658.805 -24462.72 33658.45 C -24462.507 33658.96 -24461.933 33659.17 -24462.637 33659.275 Z M -24462.64 33659.445 C -24462.64 33659.445 -24462.64 33659.445 -24462.64 33659.445 Z M -24560.426 33716.058 L -24562.867 33716.87 L -24565.37 33712.7 C -24563.235 33714.225 -24561.746 33714.73 -24560.426 33716.058 Z M -24560.378 33716.107 C -24560.378 33716.107 -24560.378 33716.107 -24560.378 33716.107 Z M -24624.555 33778.595 C -24624.55 33778.413 -24624.566 33778.16 -24624.626 33777.795 L -24622.956 33777.795 Z M -24624.567 33778.747 C -24624.567 33778.747 -24624.567 33778.747 -24624.567 33778.747 Z M -24601.258 33786.976 L -24602.927 33786.976 L -24602.927 33786.14 Z M -24601.258 33786.976 L -24597.92 33788.645 L -24597.92 33786.976 L -24595.416 33785.306 L -24599.588 33786.14 C -24597.497 33783.81 -24598.19 33784.327 -24597.085 33781.97 C -24591.428 33784.093 -24594.887 33786.5 -24592.077 33788.645 C -24595.227 33789.613 -24599.032 33789.216 -24601.258 33786.976 Z M -24601.258 33786.976 Z M -24601.258 33786.976 L -24601.258 33786.976 Z M -24662.032 33287.74 L -24662.032 33134.97 L -23947.66 33134.97 L -23947.66 33849.34 L -24328.845 33849.34 C -24336.743 33842.808 -24347.407 33837.152 -24352.555 33835.38 C -24353.334 33833.022 -24351.51 33833.435 -24353.39 33830.373 C -24353.39 33830.373 -24365.373 33820.86 -24366.743 33820.36 L -24372.585 33821.193 C -24369.116 33820.36 -24375.089 33815.35 -24375.089 33815.35 C -24380.27 33815.16 -24401.795 33797.248 -24401.795 33785.306 L -24402.63 33786.976 C -24407.213 33781.38 -24403.002 33761.757 -24407.637 33753.593 L -24404.299 33755.26 C -24404.75 33752.114 -24404.187 33749.076 -24403.464 33743.578 L -24407.637 33746.916 C -24407.6 33743.515 -24406.376 33744.93 -24410.14 33742.743 L -24412.644 33743.578 L -24410.975 33746.916 C -24418.713 33741.463 -24426.749 33733.48 -24440.185 33731.06 C -24439.547 33727.984 -24439.838 33724.79 -24441.02 33721.88 C -24451.352 33718.297 -24475.017 33715.572 -24481.914 33709.36 L -24483.583 33711.864 L -24485.252 33712.7 L -24485.252 33707.69 C -24489.4 33707.433 -24492.807 33702.676 -24500.274 33702.684 C -24496.32 33693.77 -24482.055 33686.935 -24481.08 33676.812 C -24474.53 33679.24 -24458.953 33671.048 -24451.87 33673.474 L -24453.538 33670.97 C -24438.65 33674.827 -24426.675 33667.457 -24417.652 33665.963 C -24416.245 33662.658 -24416.977 33665.6 -24417.652 33661.79 L -24414.313 33663.46 L -24415.148 33660.12 L -24413.48 33661.79 C -24409.556 33657.645 -24413.288 33652.427 -24414.313 33645.1 L -24413.48 33645.1 C -24413.2 33647.046 -24412.922 33648.993 -24412.644 33650.94 C -24410.242 33649.128 -24411.382 33650.68 -24410.975 33648.437 C -24410.784 33647.27 -24410.815 33648.237 -24411.81 33647.602 L -24411.81 33645.1 L -24406.802 33648.437 L -24404.299 33635.92 L -24405.968 33635.083 C -24408.688 33636.368 -24406.955 33634.656 -24407.637 33637.587 L -24411.81 33635.92 L -24413.48 33635.92 C -24409.612 33633.74 -24408.206 33631.798 -24403.464 33632.58 C -24405.524 33629.468 -24403.32 33631.466 -24406.802 33630.91 C -24404.98 33626.956 -24403.58 33621.41 -24399.29 33620.06 C -24400.984 33617.48 -24400.97 33617.045 -24404.299 33615.89 L -24400.96 33615.89 L -24399.29 33612.55 C -24403.515 33611.08 -24405.515 33610.046 -24408.47 33605.873 L -24401.795 33610.046 C -24403.002 33606.18 -24405.065 33599.698 -24407.637 33597.528 C -24403.386 33595.512 -24400.96 33595.56 -24397.622 33594.19 L -24399.29 33595.86 L -24395.953 33595.86 C -24394.315 33593.56 -24394.662 33594.51 -24394.284 33592.52 C -24392.01 33591.177 -24393.56 33591.407 -24391.78 33593.355 C -24390.39 33590.573 -24388.998 33587.79 -24387.607 33585.01 C -24392.567 33580.14 -24394.61 33580.14 -24397.622 33570.82 L -24395.118 33571.656 L -24396.787 33569.152 L -24398.457 33569.987 L -24399.29 33569.152 L -24400.126 33570.82 L -24398.457 33572.49 L -24400.96 33570.82 C -24398.868 33567.203 -24399.274 33563.28 -24395.953 33560.807 L -24395.953 33558.303 L -24400.96 33560.807 C -24398.27 33557.252 -24397.2 33558.99 -24395.953 33554.13 L -24391.78 33555.8 L -24388.442 33550.79 L -24388.442 33549.957 C -24391.998 33550.534 -24389.6 33548.597 -24391.78 33551.626 L -24394.284 33553.295 L -24395.118 33550.79 C -24391.427 33545.83 -24378.798 33540.347 -24372.585 33539.942 C -24371.194 33536.604 -24369.803 33533.266 -24368.412 33529.927 L -24370.08 33529.927 C -24371.22 33527.7 -24370.18 33529.42 -24372.585 33529.927 L -24375.089 33529.093 L -24371.75 33529.093 C -24372.524 33524.715 -24373.41 33528.136 -24375.923 33524.085 C -24373.188 33524.604 -24373.202 33524.644 -24370.916 33523.25 C -24373.178 33518.485 -24375.167 33516.576 -24378.307 33515.456 C -24377.442 33513.23 -24379.245 33513.243 -24379.26 33509.063 L -24385.103 33508.23 C -24387.21 33495.38 -24395.452 33492.84 -24400.96 33484.86 C -24398.943 33486.803 -24401.928 33475.61 -24402.63 33472.34 L -24405.133 33474.01 C -24404.157 33469.39 -24407.097 33469.62 -24404.299 33463.996 C -24406.635 33463.445 -24406.175 33463.847 -24408.47 33464.83 L -24405.133 33453.98 C -24407.988 33454.15 -24406.336 33454.99 -24408.47 33453.147 C -24406.165 33454.23 -24406.732 33452.258 -24405.968 33449.81 L -24405.968 33453.147 L -24403.464 33452.312 C -24405.555 33446.707 -24401.86 33438.87 -24400.126 33433.95 C -24406.183 33432.27 -24404.312 33430.88 -24410.975 33431.448 C -24408.772 33428.527 -24410.625 33430.184 -24407.637 33429.78 C -24407.672 33429.73 -24422.7 33422.926 -24425.163 33423.102 L -24425.163 33421.433 L -24423.494 33420.6 C -24414.197 33422.425 -24412.568 33424.745 -24405.133 33429.78 C -24406.35 33423.824 -24406.135 33423.75 -24403.464 33417.26 L -24401.795 33418.095 L -24400.96 33417.26 C -24401.073 33419.385 -24400.868 33418.232 -24401.795 33420.6 C -24398.163 33421.69 -24395.605 33417.7 -24389.276 33421.433 C -24387.834 33418.79 -24390.612 33418.813 -24387.607 33418.93 L -24387.607 33413.92 L -24392.615 33414.756 L -24390.11 33413.087 C -24388.818 33412.3 -24390.036 33412.59 -24388.442 33413.087 C -24389.842 33409.545 -24390.62 33410.55 -24392.615 33408.08 C -24389.308 33409.032 -24391.136 33407.298 -24391.78 33404.74 C -24383.112 33408.78 -24381.348 33428.07 -24382.6 33433.95 C -24386.126 33436.47 -24387.146 33435.01 -24389.276 33438.124 C -24386.295 33438.97 -24384.926 33438.208 -24380.096 33438.96 C -24379.62 33442.214 -24377.384 33445.42 -24375.923 33449.81 L -24375.089 33449.81 L -24372.585 33442.297 C -24374.442 33442.8 -24374.42 33440.545 -24376.758 33439.794 C -24372.743 33430.516 -24364.666 33439.327 -24363.404 33437.29 L -24360.9 33437.29 C -24360.082 33432.854 -24360.212 33429.685 -24357.562 33428.11 L -24357.562 33423.937 L -24360.066 33426.44 C -24362.507 33421.417 -24360.93 33421.584 -24365.074 33419.764 C -24360.18 33406.494 -24364.032 33394.31 -24364.24 33373.862 C -24362.538 33375.494 -24363.33 33374.154 -24362.57 33377.2 C -24360.555 33375.22 -24360.297 33375.07 -24360.066 33370.524 L -24363.404 33372.193 C -24361.913 33369.155 -24360.607 33369.1 -24358.397 33368.855 C -24364.15 33357.154 -24368.78 33334.24 -24368.412 33320.45 L -24372.585 33322.953 C -24371.354 33319.834 -24373.192 33321.196 -24370.916 33319.615 C -24375.18 33311.8 -24378.003 33308.974 -24383.434 33299.585 L -24379.26 33297.916 C -24380.97 33295.756 -24396.116 33282.136 -24400.126 33284.563 L -24400.126 33280.39 L -24407.637 33278.72 L -24406.802 33280.39 L -24408.47 33281.225 C -24406.093 33282.594 -24406.666 33281.096 -24405.133 33282.894 C -24402.81 33282.56 -24404.465 33282.732 -24402.63 33285.398 C -24404.077 33288.29 -24405.36 33288.557 -24408.47 33289.57 C -24411.945 33286.55 -24414.035 33284.396 -24420.155 33283.73 L -24415.983 33282.894 C -24416.204 33278.37 -24416.233 33279.503 -24414.313 33276.217 L -24429.336 33275.383 C -24433.74 33275.3 -24436.92 33271.167 -24437.68 33265.37 L -24440.185 33268.706 L -24444.358 33266.203 C -24444.544 33267.86 -24445.43 33266.594 -24444.358 33267.87 L -24444.358 33268.706 C -24451.89 33266.536 -24462.543 33262.614 -24465.222 33270.375 C -24468.734 33268.98 -24471.946 33260.163 -24475.237 33258.69 C -24476.65 33255.494 -24478.684 33254.957 -24484.417 33255.353 L -24481.08 33254.52 L -24480.245 33252.85 L -24491.094 33254.52 C -24491.458 33250.674 -24490.983 33251.193 -24491.93 33250.346 C -24493.803 33248.85 -24497.09 33250.46 -24499.44 33247.842 C -24503.226 33249.87 -24501.176 33250.116 -24504.447 33250.346 C -24501.844 33253.293 -24501.7 33252.382 -24498.605 33251.18 C -24501.32 33255.103 -24508.35 33253.677 -24511.958 33255.353 L -24511.124 33253.684 L -24512.793 33253.684 C -24512.3 33251.816 -24512.562 33252.88 -24511.124 33250.346 C -24513.683 33248.334 -24512.42 33249.398 -24512.793 33247.007 C -24522.514 33248.686 -24524.288 33246.827 -24531.153 33244.504 L -24531.153 33243.67 C -24537.647 33242.195 -24546.287 33243.436 -24553.687 33242.835 C -24553.014 33246.997 -24552.997 33245.18 -24554.522 33248.677 L -24557.86 33248.677 C -24558.138 33247.564 -24558.416 33246.45 -24558.694 33245.34 L -24556.19 33244.504 C -24559.516 33243.29 -24558.144 33244.553 -24558.694 33242 L -24578.724 33245.34 C -24585.825 33247.853 -24624.78 33268.953 -24637.144 33266.203 L -24635.475 33267.87 C -24642.55 33275.67 -24648.593 33276.288 -24656.34 33283.73 C -24658.104 33284.335 -24658.983 33284.94 -24657.174 33285.398 C -24658.912 33286.62 -24660.528 33286.557 -24662.032 33287.74 Z M -24662.032 33367.72 L -24661.347 33366.35 L -24660.512 33366.35 L -24662.032 33367.87 Z M -24427.956 33849.34 C -24429.605 33848.06 -24429.105 33848.92 -24430.17 33846.23 L -24427.838 33849.34 Z" fill="#436ba2">
        
        </path>
      </g>
    </g>
  </g>
</svg>
