<?xml version="1.0" encoding="UTF-8" standalone="no"?>
<!DOCTYPE svg PUBLIC "-//W3C//DTD SVG 1.1//EN" "http://www.w3.org/Graphics/SVG/1.1/DTD/svg11.dtd">
<svg xmlns:dc="http://purl.org/dc/elements/1.1/" xmlns:xl="http://www.w3.org/1999/xlink" version="1.1" xmlns="http://www.w3.org/2000/svg" viewBox="-19365 4157 1198 1198" width="1198" height="1198">
  <defs/>
  <metadata> Produced by OmniGraffle 7.18.5\n2021-04-18 08:11:17 +0000</metadata>
  <g id="logo" fill-opacity="1" fill="none" stroke-opacity="1" stroke="none" stroke-dasharray="none">
    <title>logo</title>
    <g id="logo_Layer_1">
      <title>Layer 1</title>
      <g id="Group_12">
        <g id="Graphic_6">
          <rect x="-19365" y="4157" width="1198" height="1198" stroke="black" stroke-linecap="round" stroke-linejoin="round" stroke-width="0"/>
        </g>
        <g id="Group_11">
          <g id="Graphic_8">
            <path d="M -18458.332 4494.9496 C -18322.82 4526.9726 -18322.82 4578.892 -18458.332 4610.915 C -18593.844 4642.938 -18813.551 4642.938 -18949.063 4610.915 C -19084.576 4578.892 -19084.576 4526.9726 -18949.063 4494.9496 C -18813.551 4462.9265 -18593.844 4462.9265 -18458.332 4494.9496" fill="#dcfdae"/>
            <path d="M -18458.332 4494.9496 C -18322.82 4526.9726 -18322.82 4578.892 -18458.332 4610.915 C -18593.844 4642.938 -18813.551 4642.938 -18949.063 4610.915 C -19084.576 4578.892 -19084.576 4526.9726 -18949.063 4494.9496 C -18813.551 4462.9265 -18593.844 4462.9265 -18458.332 4494.9496" stroke="black" stroke-linecap="round" stroke-linejoin="round" stroke-width="0"/>
          </g>
          <g id="Graphic_5">
            <title>颜色填充_2</title>
            <path d="M -18792.685 4555.585 C -18792.817 4511.117 -18775.33 4504.807 -18751.032 4486.1636 L -18792.685 4503.519 C -18799.578 4521.3083 -18805.628 4529.0037 -18806.57 4555.585 L -18844.75 4555.585 C -18845.317 4526.383 -18839.805 4511.124 -18830.867 4493.106 C -18911.645 4410.7266 -19047.184 4356.404 -19153.677 4302.1964 C -19187.284 4285.091 -19263.363 4267.93 -19240.454 4208.477 L -19219.627 4187.6507 C -19170.383 4160.396 -19111.118 4205.402 -19080.784 4222.3615 C -18970.671 4283.928 -18856.553 4361.177 -18785.742 4461.866 C -18687.403 4428.87 -18581.296 4495.5563 -18542.767 4548.643 L -18542.767 4552.114 C -18625.031 4555.9323 -18704.491 4561.3507 -18792.685 4555.585 Z" fill="#ee696f"/>
          </g>
          <g id="Graphic_4">
            <title>颜色填充_1</title>
            <path d="M -18612.507 5332.915 C -18627.65 5331.4624 -18639.143 5318.418 -18650.636 5312.117 C -18702.945 5283.441 -18741.015 5251.314 -18740.759 5170 L -18745.38 5171.1554 C -18756.8 5204.374 -18786.167 5232.529 -18800.84 5265.9 L -18820.483 5325.982 L -18822.794 5324.827 C -18829.47 5238.356 -18793.577 5197.2426 -18766.178 5144.5807 C -18747.935 5109.516 -18738.06 5074.8485 -18726.894 5031.349 C -18720.192 5005.249 -18710.658 4959.1155 -18718.806 4926.2055 L -18719.96 4926.2055 C -18833.046 4941.5 -18845.047 5064.683 -18873.632 5166.534 C -18877.985 5182.043 -18905.118 5241.3567 -18904.83 5245.1026 L -18912.917 5245.1026 C -18909.836 5231.2375 -18906.755 5217.3724 -18903.673 5203.507 C -18898.667 5165.767 -18893.66 5128.0235 -18888.653 5090.276 C -18879.207 5051.501 -18865.304 5019.983 -18849.369 4988.5984 C -18877.136 4996.7915 -18932.534 5070.4406 -18956.823 5092.5866 C -18967.514 5102.334 -18984.948 5125.5994 -19001.885 5123.783 L -19006.506 5122.6276 L -19004.195 5120.317 L -18971.843 5072.9444 C -18916.166 4984.4967 -18884.897 4947.7923 -18793.908 4893.8537 L -18795.064 4891.543 C -18868.298 4890.2614 -18871.56 4916.591 -18916.383 4940.0706 C -18930.993 4947.724 -18948.184 4941.419 -18966.066 4945.848 C -19013.14 4957.506 -19018.272 5018.954 -19024.993 5069.478 L -19029.615 5070.6335 C -19031.205 5019.856 -19038.554 4959.647 -18999.574 4943.537 C -18999.959 4941.9963 -19000.344 4940.456 -19000.73 4938.915 C -19029.949 4935.874 -19056.15 4927.6024 -19087.386 4935.449 L -19083.92 4928.5164 C -19070.03 4922.27 -19058.586 4913.1747 -19040.014 4910.0296 C -19013.115 4905.475 -18986.016 4924.8387 -18955.668 4915.807 C -18913.222 4903.1756 -18891.203 4867.667 -18850.524 4856.88 L -18850.524 4852.2584 C -18958.712 4824.0903 -19053.958 4711.954 -19093.163 4611.93 C -19101.52 4590.608 -19126.548 4524.437 -19119.738 4497.543 C -19107.012 4463.471 -19025.515 4451.103 -18984.553 4442.083 C -18962.995 4437.335 -18927.706 4443.4694 -18923.316 4462.8805 C -18966.274 4464.712 -19038.179 4473.4757 -19057.345 4501.0095 C -19051.783 4534.517 -18941.311 4538.965 -18903.673 4544.9156 C -18855.74 4552.494 -18798.208 4555.2266 -18739.603 4555.3144 L -18624.06 4555.3144 C -18585.102 4548.939 -18543.665 4552.0723 -18507.363 4544.9156 C -18450.97 4533.798 -18384.38 4540.577 -18351.38 4506.7866 C -18351.679 4497.223 -18354.306 4496.911 -18358.313 4491.766 C -18429.647 4466.4184 -18517.099 4461.4836 -18606.73 4454.7925 C -18658.754 4450.909 -18734.605 4446.33 -18791.597 4453.637 C -18798.414 4444.5185 -18812.26 4435.943 -18815.861 4424.7515 L -18795.064 4424.7515 C -18771.47 4418.3135 -18683.476 4419.4955 -18657.568 4423.596 L -18572.067 4425.907 C -18507.413 4436.247 -18441.504 4436.116 -18384.888 4451.326 C -18356.118 4459.056 -18291.833 4470.622 -18287.832 4498.6986 C -18284.11 4524.8343 -18301.558 4573.339 -18308.63 4593.4434 C -18341.376 4686.506 -18393.37 4754.3154 -18466.923 4806.0414 L -18524.694 4839.549 C -18535.518 4844.286 -18550.517 4846.57 -18558.202 4854.569 C -18557.817 4855.3395 -18557.431 4856.11 -18557.046 4856.88 C -18541.188 4861.177 -18534.528 4871.451 -18523.54 4879.9886 C -18505.226 4894.2165 -18482.467 4907.467 -18456.524 4913.496 C -18404.256 4925.643 -18352.56 4895.254 -18321.34 4931.9827 L -18321.34 4935.449 L -18322.495 4935.449 C -18350.374 4924.5683 -18383.955 4934.0046 -18409.152 4940.0706 L -18409.152 4941.226 C -18373.927 4982.4747 -18372.032 4999.9736 -18379.11 5072.9444 L -18382.577 5072.9444 C -18388.135 5018.6 -18396.17 4958.333 -18441.504 4945.848 C -18462.173 4940.155 -18475.895 4950.007 -18495.809 4937.76 C -18529.756 4916.88 -18544.085 4891.2343 -18602.108 4891.543 L -18600.952 4896.1645 C -18575.357 4905.2924 -18552.823 4928.879 -18533.938 4945.848 C -18515.49 4962.4235 -18491.327 4972.2966 -18475.011 4990.909 C -18440.734 5030.01 -18417.758 5081.141 -18388.354 5124.9385 L -18388.354 5126.094 L -18392.976 5126.094 C -18405.274 5115.502 -18418.958 5107.8625 -18429.95 5096.053 C -18459.977 5063.79 -18505.766 4989.5956 -18553.58 4980.5105 C -18548.958 4998.612 -18544.337 5016.714 -18539.715 5034.8154 C -18529.568 5089.194 -18538.714 5139.09 -18515.45 5176.9326 C -18500.636 5201.0335 -18440.16 5227.622 -18438.038 5252.035 L -18441.504 5252.035 C -18448.667 5239.179 -18478.408 5235.042 -18492.343 5228.9266 C -18523.098 5215.428 -18546.327 5192.1044 -18554.735 5156.135 C -18564.929 5160.04 -18568.612 5175.1555 -18575.533 5182.7097 C -18590.595 5199.15 -18612.575 5215.206 -18636.77 5221.994 L -18639.081 5219.683 L -18633.304 5212.751 L -18600.952 5161.912 C -18568.048 5094.0667 -18563.74 4989.754 -18621.75 4945.848 C -18633.452 4936.99 -18655.56 4918.657 -18674.9 4922.739 L -18674.9 4925.05 C -18683.695 4946.31 -18672.448 4983.014 -18666.812 4996.6864 C -18647.203 5044.254 -18603.415 5056.4553 -18612.507 5128.405 L -18613.662 5128.405 L -18615.973 5127.2493 C -18620.047 5099.095 -18633.495 5076.6545 -18652.946 5063.701 C -18661.394 5058.075 -18671.218 5055.554 -18676.055 5046.3696 L -18680.677 5046.3696 C -18684.174 5069.016 -18695.383 5086.1913 -18701.474 5106.4517 C -18713.057 5144.9816 -18709.727 5202.307 -18695.697 5234.704 C -18679.912 5271.154 -18618.746 5304.304 -18612.507 5332.915 Z" fill="#4c6a9e"/>
          </g>
        </g>
      </g>
    </g>
  </g>
</svg>
